<svg xmlns="http://www.w3.org/2000/svg" xmlns:xlink="http://www.w3.org/1999/xlink" xmlns:serif="http://www.serif.com/" width="835px" height="492px" version="1.1" xml:space="preserve" style="fill-rule:evenodd;clip-rule:evenodd;stroke-linejoin:round;stroke-miterlimit:2;"><g transform="matrix(1,0,0,1,-6031.99,-29401.6)"><g transform="matrix(3.06707,0,0,3.88155,2696,25807.2)"><g transform="matrix(0.326044,0,0,0.257629,-2019.92,-2848.09)"><g transform="matrix(0.311666,0,0,0.311666,2324.06,12163.1)"><path d="M25800.6,8182.03C25800.6,8069 25708.8,7977.23 25595.8,7977.23L23329.4,7977.23C23216.3,7977.23 23124.6,8069 23124.6,8182.03L23124.6,9348.11C23124.6,9461.14 23216.3,9552.91 23329.4,9552.91L25595.8,9552.91C25708.8,9552.91 25800.6,9461.14 25800.6,9348.11L25800.6,8182.03Z" style="fill:white;"/></g><g transform="matrix(1.96877,0,0,1.96877,9647,14736.4)"><path d="M280.583,161L25.416,161C11.379,161 0,149.62 0,135.583L0,25.417C0,11.38 11.379,0 25.416,0L280.583,0C294.62,0 306,11.38 306,25.417L306,135.583C306,149.62 294.62,161 280.583,161Z"/></g><g transform="matrix(1.96877,0,0,1.96877,9647,14736.4)"><rect x="126" y="24.084" width="20.75" height="116.249" style="fill:white;fill-rule:nonzero;"/></g><g transform="matrix(1.96877,0,0,1.96877,9647,14736.4)"><rect x="164.5" y="63.334" width="20.75" height="76.999" style="fill:white;fill-rule:nonzero;"/></g><g transform="matrix(1.96877,0,0,1.96877,9647,14736.4)"><path d="M278.25,140.333L247.069,99.584L275.75,63.334L251.25,63.334L223.75,98.502L223.75,24.084L203,24.084L203,140.333L223.75,140.333L223.75,100.8L251.25,140.333L278.25,140.333Z" style="fill:white;fill-rule:nonzero;"/></g><g transform="matrix(1.96877,0,0,1.96877,9647,14736.4)"><path d="M73.125,120.458C62.838,120.458 54.5,112.119 54.5,101.833C54.5,91.548 62.838,83.209 73.125,83.209C83.411,83.209 91.75,91.548 91.75,101.833C91.75,112.119 83.411,120.458 73.125,120.458ZM73.125,62.459C66.386,62.459 60.045,64.155 54.5,67.137L54.5,24.084L33.75,24.084L33.75,101.833C33.75,123.579 51.378,141.208 73.125,141.208C94.871,141.208 112.5,123.579 112.5,101.833C112.5,80.088 94.871,62.459 73.125,62.459Z" style="fill:white;fill-rule:nonzero;"/></g><g transform="matrix(1.11022e-16,-1.96877,1.96877,1.11022e-16,9758.32,14992.7)"><path d="M111.875,36.834C111.875,47.051 103.592,55.334 93.375,55.334C83.157,55.334 74.875,47.051 74.875,36.834C74.875,26.616 83.157,18.334 93.375,18.334C103.592,18.334 111.875,26.616 111.875,36.834Z" style="fill:url(#_Linear1);"/></g></g></g></g><defs><linearGradient id="_Linear1" x1="0" y1="0" x2="1" y2="0" gradientUnits="userSpaceOnUse" gradientTransform="matrix(37,0,0,37,74.875,36.834)"><stop offset="0" style="stop-color:rgb(241,77,129);stop-opacity:1"/><stop offset="0.56" style="stop-color:rgb(233,64,80);stop-opacity:1"/><stop offset="1" style="stop-color:rgb(230,59,60);stop-opacity:1"/></linearGradient></defs></svg>
