<svg xmlns="http://www.w3.org/2000/svg" xmlns:xlink="http://www.w3.org/1999/xlink" xmlns:serif="http://www.serif.com/" width="835px" height="492px" version="1.1" xml:space="preserve" style="fill-rule:evenodd;clip-rule:evenodd;stroke-linejoin:round;stroke-miterlimit:2;"><g transform="matrix(1,0,0,1,-3081.57,-29401.6)"><g transform="matrix(3.06707,0,0,3.88155,2696,25807.2)"><g transform="matrix(0.326044,0,0,0.257629,-2019.92,-2848.09)"><g transform="matrix(0.311666,0,0,0.311666,-626.359,12163.1)"><path d="M25800.6,8182.03C25800.6,8069 25708.8,7977.23 25595.8,7977.23L23329.4,7977.23C23216.3,7977.23 23124.6,8069 23124.6,8182.03L23124.6,9348.11C23124.6,9461.14 23216.3,9552.91 23329.4,9552.91L25595.8,9552.91C25708.8,9552.91 25800.6,9461.14 25800.6,9348.11L25800.6,8182.03Z" style="fill:white;"/></g><g transform="matrix(0.0746436,0,0,0.0746436,5061.98,13885.1)"><path d="M27695,12815.9L27797.1,12225.8C27797.1,12225.8 27482.1,12106 27153.7,12106C26798.8,12106 25955.8,12261.2 25955.8,13015.6C25955.8,13725.4 26945.2,13734.3 26945.2,14107.1C26945.2,14480 26057.7,14413.1 25764.8,14178L25658.5,14795C25658.5,14795 25977.9,14950.1 26465.9,14950.1C26954.1,14950.1 27690.5,14697.4 27690.5,14009.4C27690.5,13295.1 26692.2,13228.5 26692.2,12918C26692.3,12607.3 27388.9,12647.2 27695,12815.9ZM21417.4,12201.6L21417.3,12201.7C21417.3,12201.7 21762.1,12273.4 22165.6,12515.7L22787.1,14902.8L23532.4,14902.8L24670.5,12155.1L23900.6,12155.1L23218.6,14044.9L23137.9,13638L23138,13638.1L23138,13638L23138,13638.1L22897.3,12402.5C22897.3,12402.5 22868.2,12155.1 22558,12155.1L21430.6,12155.1L21417.3,12201.6L21417.4,12201.6ZM25217.7,14902.7L24502.4,14902.7L24949.5,12155.1L25664.9,12155.1L25217.7,14902.7ZM29527.1,14902.7L30183.9,14902.7L29611.2,12155.1L29036.2,12155.1C28770.6,12155.1 28706,12359.8 28706,12359.8L27639.1,14902.7L28384.8,14902.7L28533.9,14494.6L29443.3,14494.6L29527.1,14902.7ZM28739.9,13930.8L29115.8,12902.6L29327.2,13930.8L28739.9,13930.8Z" style="fill:rgb(0,87,159);fill-rule:nonzero;"/><clipPath id="_clip1"><path d="M27695,12815.9L27797.1,12225.8C27797.1,12225.8 27482.1,12106 27153.7,12106C26798.8,12106 25955.8,12261.2 25955.8,13015.6C25955.8,13725.4 26945.2,13734.3 26945.2,14107.1C26945.2,14480 26057.7,14413.1 25764.8,14178L25658.5,14795C25658.5,14795 25977.9,14950.1 26465.9,14950.1C26954.1,14950.1 27690.5,14697.4 27690.5,14009.4C27690.5,13295.1 26692.2,13228.5 26692.2,12918C26692.3,12607.3 27388.9,12647.2 27695,12815.9ZM21417.4,12201.6L21417.3,12201.7C21417.3,12201.7 21762.1,12273.4 22165.6,12515.7L22787.1,14902.8L23532.4,14902.8L24670.5,12155.1L23900.6,12155.1L23218.6,14044.9L23137.9,13638L23138,13638.1L23138,13638L23138,13638.1L22897.3,12402.5C22897.3,12402.5 22868.2,12155.1 22558,12155.1L21430.6,12155.1L21417.3,12201.6L21417.4,12201.6ZM25217.7,14902.7L24502.4,14902.7L24949.5,12155.1L25664.9,12155.1L25217.7,14902.7ZM29527.1,14902.7L30183.9,14902.7L29611.2,12155.1L29036.2,12155.1C28770.6,12155.1 28706,12359.8 28706,12359.8L27639.1,14902.7L28384.8,14902.7L28533.9,14494.6L29443.3,14494.6L29527.1,14902.7ZM28739.9,13930.8L29115.8,12902.6L29327.2,13930.8L28739.9,13930.8Z" clip-rule="nonzero"/></clipPath><g clip-path="url(#_clip1)"><g transform="matrix(13.397,0,0,13.397,-67767.7,-185988)"><path d="M6712.45,14816.9C6744.55,14833.3 6768.79,14856 6790.38,14880.8L6777.34,14781.5L6646.12,14783.8L6674.27,14817.7L6712.45,14816.9Z" style="fill:rgb(250,166,26);"/></g></g></g></g></g></g></svg>
