<svg xmlns="http://www.w3.org/2000/svg" xmlns:xlink="http://www.w3.org/1999/xlink" xmlns:serif="http://www.serif.com/" width="835px" height="492px" version="1.1" xml:space="preserve" style="fill-rule:evenodd;clip-rule:evenodd;stroke-linejoin:round;stroke-miterlimit:2;"><g transform="matrix(1,0,0,1,-7015.46,-29401.6)"><g transform="matrix(3.06707,0,0,3.88155,2696,25807.2)"><g transform="matrix(0.101617,0,0,0.0802943,-2123.14,285.483)"><g transform="matrix(1,0,0,1,11628.2,0)"><path d="M25800.6,8182.03C25800.6,8069 25708.8,7977.23 25595.8,7977.23L23329.4,7977.23C23216.3,7977.23 23124.6,8069 23124.6,8182.03L23124.6,9348.11C23124.6,9461.14 23216.3,9552.91 23329.4,9552.91L25595.8,9552.91C25708.8,9552.91 25800.6,9461.14 25800.6,9348.11L25800.6,8182.03Z" style="fill:white;"/></g><g transform="matrix(1.69142,0,0,1.69142,-13867.6,8251.68)"><g transform="matrix(4.16667,0,0,4.16667,28933.8,0)"><path d="M250.722,55.159C248.843,55.159 247.321,53.636 247.322,51.757L247.327,36.722L246.073,36.722C238.295,36.722 235.402,38.005 235.402,45.09L235.402,61.669C235.401,61.704 235.397,61.739 235.397,61.774L235.397,65.408C235.395,65.534 235.387,65.651 235.387,65.781L235.387,88.946C235.387,91.775 234.842,94.028 233.717,95.778C231.596,99.046 227.397,100.531 220.679,100.54C213.964,100.531 209.766,99.047 207.645,95.782C206.517,94.031 205.971,91.777 205.971,88.946L205.971,65.781C205.971,65.651 205.964,65.534 205.962,65.408L205.962,61.774C205.962,61.739 205.958,61.704 205.957,61.669L205.957,45.09C205.957,38.005 203.064,36.722 195.286,36.722L192.837,36.722C185.058,36.722 182.166,38.005 182.166,45.09L182.166,88.946C182.166,96.001 183.757,101.974 186.831,106.789C192.768,116.119 204.269,121.088 220.619,121.088C220.639,121.088 220.659,121.087 220.679,121.087C220.7,121.087 220.719,121.088 220.74,121.088C237.09,121.088 248.591,116.119 254.528,106.789C257.601,101.974 259.193,96.001 259.193,88.946L259.193,55.162L250.722,55.159Z" style="fill:rgb(165,195,18);fill-rule:nonzero;"/></g><g transform="matrix(4.16667,0,0,4.16667,28933.8,0)"><path d="M286.682,30.934L273.888,30.929C272.493,30.929 271.362,29.797 271.363,28.401L271.367,15.449C271.368,14.054 272.5,12.923 273.895,12.923L286.688,12.928C288.084,12.928 289.215,14.06 289.215,15.455L289.21,28.407C289.21,29.803 288.078,30.934 286.682,30.934Z" style="fill:rgb(165,195,18);fill-rule:nonzero;"/></g><g transform="matrix(4.16667,0,0,4.16667,28933.8,0)"><path d="M269.634,12.925L260.945,12.922C259.997,12.921 259.229,12.152 259.229,11.205L259.232,2.408C259.233,1.46 260.002,0.692 260.949,0.692L269.638,0.695C270.586,0.695 271.354,1.465 271.354,2.412L271.351,11.209C271.35,12.157 270.582,12.925 269.634,12.925Z" style="fill:rgb(165,195,18);fill-rule:nonzero;"/></g><g transform="matrix(4.16667,0,0,4.16667,28933.8,0)"><path d="M49.658,63.404C49.658,73.811 47.001,79.451 32.984,79.451L11.406,79.451L11.406,52.593C11.406,48.868 12.79,47.483 16.514,47.483L32.984,47.483C43.544,47.483 49.658,50.089 49.658,63.404ZM32.984,36.706L14.377,36.706C4.434,36.706 0,41.141 0,51.084L0,114.949C0,118.79 1.233,120.023 5.074,120.023L6.331,120.023C10.173,120.023 11.406,118.79 11.406,114.949L11.406,90.103L32.984,90.103C52.142,90.103 61.065,81.618 61.065,63.404C61.065,45.189 52.142,36.706 32.984,36.706Z" style="fill:rgb(165,195,18);fill-rule:nonzero;"/></g><g transform="matrix(4.16667,0,0,4.16667,28933.8,0)"><path d="M101.201,91.318L101.201,100.073C101.201,107.21 98.555,111.342 85.029,111.342C76.093,111.342 71.748,108.108 71.748,101.456C71.748,94.161 76.106,91.318 87.292,91.318L101.201,91.318ZM85.029,55.02C77.655,55.02 73.033,55.945 71.281,56.296C68.177,56.971 66.88,57.822 66.88,61.352L66.88,62.357C66.88,63.74 67.084,64.698 67.524,65.372C68.035,66.157 68.859,66.556 69.972,66.556C70.516,66.556 71.145,66.464 71.897,66.276C73.669,65.833 79.335,64.917 85.531,64.917C96.661,64.917 101.201,68 101.201,75.558L101.201,82.302L87.166,82.302C69.123,82.302 60.719,88.388 60.719,101.456C60.719,114.132 69.397,121.113 85.155,121.113C103.88,121.113 112.23,114.741 112.23,100.45L112.23,75.558C112.23,61.738 103.333,55.02 85.029,55.02Z" style="fill:rgb(165,195,18);fill-rule:nonzero;"/></g><g transform="matrix(4.16667,0,0,4.16667,28933.8,0)"><path d="M173.943,57.997C173.148,56.999 171.645,56.861 170.138,56.861L169.008,56.861C165.253,56.861 163.78,58.02 162.949,61.622L152.515,104.992C151.213,110.322 149.383,111.296 146.252,111.296C142.418,111.296 140.883,110.381 139.355,104.971L127.537,61.602C126.559,57.969 125.116,56.861 121.36,56.861L120.354,56.861C118.838,56.861 117.328,57.001 116.553,58.012C115.777,59.024 116.039,60.535 116.439,62.02L128.382,105.766C130.621,114.138 133.285,121.068 143.235,121.068C145.092,121.068 146.81,120.81 148.239,120.328C145.221,129.819 142.151,134.005 133.098,134.935C131.261,135.088 130.067,135.351 129.401,136.243C128.711,137.168 128.868,138.493 129.115,139.676L129.364,140.798C129.904,143.392 130.825,145 133.737,145C134.043,145 134.372,144.984 134.725,144.954C148.243,144.069 155.486,136.791 159.724,119.834L174.186,61.989C174.529,60.505 174.736,58.994 173.943,57.997Z" style="fill:rgb(165,195,18);fill-rule:nonzero;"/></g><g transform="matrix(4.16667,0,0,4.16667,28933.8,0)"><path d="M267.957,30.923L250.731,30.917C248.852,30.917 247.329,32.439 247.328,34.318L247.327,36.722L248.522,36.722C256.299,36.722 259.193,38.005 259.193,45.09L259.193,55.162L267.948,55.165C269.827,55.166 271.35,53.644 271.351,51.765L271.357,34.326C271.357,32.447 269.835,30.924 267.957,30.923Z" style="fill:rgb(165,195,18);fill-rule:nonzero;"/></g></g></g></g></g></svg>
